<?xml version="1.0" encoding="utf-8"?>
<!-- Generator: Adobe Illustrator 21.0.2, SVG Export Plug-In . SVG Version: 6.00 Build 0)  -->
<svg version="1.1" id="Layer_1" xmlns="http://www.w3.org/2000/svg" xmlns:xlink="http://www.w3.org/1999/xlink" x="0px" y="0px"
	 viewBox="0 0 256 256" style="enable-background:new 0 0 256 256;" xml:space="preserve">
<style type="text/css" >
        <![CDATA[
  
          @keyframes fill {
	          0% {
	              fill: #68C3EE;
	          }
	          50% {
	              fill: #65BD62;
	          }
              100% {
	              fill: #F7941D;
	          }
	      }
	 
	      #top {
	          fill: #1A237E;
	          animation-name: fill;
	          animation-delay: 1s;
			  animation-duration: 3s;
              animation-iteration-count: infinite;
	      }
		  
		  #midle {
	          fill: #1A237E;
	          animation-name: fill;
	          animation-delay: 0.5s;
			  animation-duration: 3s;
              animation-iteration-count: infinite;
	      }
  
  
		#bottom {
	          fill: #1A237E;
	          animation-name: fill;
	          animation-duration: 3s;
              animation-iteration-count: infinite;
	      }
  
  
        ]]>
    </style>
<circle id="bottom" class="st0" cx="56.3" cy="201.9" r="30.3"/>
<path id="midle" class="st0" d="M129.1,159.4H56.3c-16.7,0-30.3-13.6-30.3-30.3l0,0c0-16.7,13.6-30.3,30.3-30.3h72.8
	c16.7,0,30.3,13.6,30.3,30.3l0,0C159.4,145.8,145.7,159.4,129.1,159.4z"/>
<path id="top" class="st0" d="M201.6,86.6H56.5C39.7,86.6,26,72.9,26,56.1l0,0c0-16.8,13.7-30.6,30.6-30.6h145.1
	c16.8,0,30.6,13.7,30.6,30.6l0,0C232.2,72.9,218.4,86.6,201.6,86.6z"/>
</svg>
