<?xml version="1.0" encoding="utf-8"?>
<!-- Generator: Adobe Illustrator 25.2.3, SVG Export Plug-In . SVG Version: 6.00 Build 0)  -->
<svg version="1.1" id="Layer_2_1_" xmlns="http://www.w3.org/2000/svg" xmlns:xlink="http://www.w3.org/1999/xlink" x="0px" y="0px"
	 viewBox="0 0 256 256" style="enable-background:new 0 0 256 256;" xml:space="preserve">
<style type="text/css">
	.st0{fill:#14499E;}
	.st1{fill:#68C3EE;}
	.st2{fill:#65BD62;}
	.st3{fill:#F7941D;}
</style>
<g id="Layer_2_2_">
	<circle class="st0" cx="128" cy="128" r="124.9"/>
	<circle class="st1" cx="76.9" cy="179.1" r="21.3"/>
	<path class="st2" d="M128,149.3H76.9c-11.7,0-21.3-9.6-21.3-21.3l0,0c0-11.7,9.6-21.3,21.3-21.3H128c11.7,0,21.3,9.6,21.3,21.3l0,0
		C149.3,139.7,139.7,149.3,128,149.3z"/>
	<path class="st3" d="M178.9,98.2H77.1c-11.8,0-21.5-9.7-21.5-21.5l0,0c0-11.8,9.7-21.5,21.5-21.5h101.9c11.8,0,21.5,9.7,21.5,21.5
		l0,0C200.4,88.5,190.8,98.2,178.9,98.2z"/>
</g>
</svg>
