<?xml version="1.0" encoding="utf-8"?>
<!-- Generator: Adobe Illustrator 25.2.3, SVG Export Plug-In . SVG Version: 6.00 Build 0)  -->
<svg version="1.1" xmlns="http://www.w3.org/2000/svg" xmlns:xlink="http://www.w3.org/1999/xlink" x="0px" y="0px"
	 viewBox="0 0 3718 957" style="enable-background:new 0 0 3718 957;" xml:space="preserve">
<style type="text/css">
	.st0{fill:#14499E;}
	.st1{fill:#68C3EE;}
	.st2{fill:#65BD62;}
	.st3{fill:#F7941D;}
</style>
<g id="Layer_2">
	<circle class="st0" cx="500" cy="473" r="352"/>
	<circle class="st1" cx="356" cy="617" r="60"/>
	<path class="st2" d="M500,533H356c-33,0-60-27-60-60v0c0-33,27-60,60-60h144c33,0,60,27,60,60v0C560,506,533,533,500,533z"/>
	<path class="st3" d="M643.5,389h-287c-33.3,0-60.5-27.2-60.5-60.5v0c0-33.3,27.2-60.5,60.5-60.5h287c33.3,0,60.5,27.2,60.5,60.5v0
		C704,361.8,676.8,389,643.5,389z"/>
</g>
<g id="Layer_1">
	<g>
		<path class="st0" d="M1065.5,677.8v-403h263.4v61.5h-195v120.5h163.7v61.5h-163.7v159.5H1065.5z"/>
		<path class="st0" d="M1578.2,401.1h63.4v276.7h-60.7v-37.1h-0.8c-21.1,27.7-50.4,41.5-88.1,41.5c-15.1,0-29.6-2.1-43.3-6.4
			c-13.8-4.2-26.1-10.5-37.1-18.8c-11-8.3-20.5-18.1-28.5-29.5c-8-11.4-14.2-24.5-18.6-39.3c-4.3-14.9-6.5-30.7-6.5-47.5
			c0-20.5,3.4-39.7,10.2-57.6c6.8-17.9,16.2-33.1,28-45.7c11.8-12.6,25.9-22.4,42.4-29.6c16.4-7.2,34.1-10.8,52.9-10.8
			c36,0,64.5,12.5,85.6,37.4h1.1V401.1z M1502,624.6c22,0,40.6-7.8,55.8-23.4c15.2-15.6,22.9-35.7,22.9-60.2
			c0-24.6-7.4-45.1-22.3-61.6c-14.9-16.5-33.6-24.8-56.1-24.8c-11.1,0-21.5,2-31.2,6.1c-9.7,4.1-18.1,9.7-25.3,17
			c-7.2,7.3-12.9,16.4-17,27.4c-4.2,11-6.2,22.9-6.2,35.9c0,24.6,7.4,44.6,22.2,60.2C1459.4,616.8,1478.6,624.6,1502,624.6z"/>
		<path class="st0" d="M1872.1,396.9c3.7,0,6.3,0.1,7.8,0.3v70.6c-7.2-0.6-13.6-0.8-19.1-0.8c-15.7,0-29.3,3.5-40.9,10.5
			c-11.5,7-20.2,16.5-26,28.4c-5.8,11.9-8.7,25.4-8.7,40.6v131.3h-63.4V401.1h63.4v41.5h0.8c10.9-14.8,23.8-26.1,38.6-33.9
			C1839.4,400.8,1855.3,396.9,1872.1,396.9z"/>
		<path class="st0" d="M2266.2,396.9c31.2,0,55.2,10,72,30.1c16.8,20,25.2,50.3,25.2,90.7V678H2300V533.7
			c0-52.8-18.1-79.2-54.3-79.2c-18.5,0-33.8,7.6-46.1,22.9c-12.3,15.2-18.4,36.1-18.4,62.5V678h-63.4V533.7
			c0-52.8-18.4-79.2-55.1-79.2c-19.4,0-35.3,7.6-47.8,22.9c-12.5,15.2-18.7,36.1-18.7,62.5v137.9h-63.4V401.1h63.4v38.2h0.8
			c11.3-13.7,24.4-24.1,39.5-31.4c15-7.3,30.7-10.9,47-10.9c38.6,0,66.1,15.3,82.5,46h1.1c11.6-15,25.9-26.4,42.9-34.2
			C2227,400.8,2245.7,396.9,2266.2,396.9z"/>
		<path class="st0" d="M2694.5,536.2c0,10.2-0.6,18.6-1.7,25.2h-201.7c4.1,19.6,13.2,35,27.3,46.3c14.1,11.3,31.3,16.9,51.7,16.9
			c28.6,0,51.6-10.9,69-32.7l44.3,37.9c-12.6,16.1-28.7,28.8-48.3,38.2c-19.7,9.4-42.4,14.1-68.3,14.1c-26.8,0-50.9-5.8-72.3-17.5
			c-21.4-11.6-38.3-28.4-50.7-50.3c-12.4-21.9-18.6-47-18.6-75.2c0-20.9,3.4-40.2,10.2-57.9c6.8-17.7,16.2-32.8,28.3-45.1
			c12-12.4,26.3-22,42.9-28.9c16.6-6.9,34.4-10.4,53.5-10.4c26.8,0,50.4,6,70.9,18c20.5,12,36.2,28.5,47.1,49.6
			C2689,485.5,2694.5,509.5,2694.5,536.2z M2563.4,454.5c-17.5,0-32.7,4.8-45.4,14.5c-12.7,9.7-21.3,23.4-25.8,41.1h138.5
			c-2.8-11.3-7.1-21-12.9-29.2c-5.8-8.2-13.4-14.7-22.7-19.4C2585.8,456.9,2575.3,454.5,2563.4,454.5z"/>
		<path class="st0" d="M2916.1,677.8l-62.9-87.3h-1.1l-63.2,87.3h-70.1l97.2-141l-96.7-135.7h73.4l58.7,87h1.4l59.3-87h72.8
			l-96.1,135.4l97.8,141.3H2916.1z"/>
		<path class="st0" d="M3126,682.2c-24.4,0-43.3-7.8-56.9-23.3c-13.6-15.5-20.4-38.4-20.4-68.7V455.1h-33.8v-54h33.8v-92l63.4-6.9
			v98.9h81.4v54h-81.4v129.4c0,13.8,2.2,23.7,6.5,29.6c4.3,5.9,11,8.9,20.1,8.9c12.4,0,26-4,41-11.9l16.6,54.8
			c-10,5.4-20.1,9.4-30.3,12.2C3155.8,680.8,3142.4,682.2,3126,682.2z"/>
	</g>
</g>
</svg>
