<svg height="512pt" viewBox="0 0 512 512" width="512pt" xmlns="http://www.w3.org/2000/svg"><path d="m473.699219 448.257812v-349.769531c0-3.035156-1.800781-5.777343-4.585938-6.980469l-96.800781-41.875c-3.851562-1.667968-8.332031.105469-9.996094 3.960938-1.667968 3.855469.105469 8.328125 3.957032 9.996094l92.21875 39.890625v344.132812h-30.324219v-299.578125c0-4.203125-3.402344-7.605468-7.605469-7.605468h-329.125c-4.199219 0-7.605469 3.402343-7.605469 7.605468v215.046875c0 4.199219 3.40625 7.601563 7.605469 7.601563s7.601562-3.402344 7.601562-7.601563v-207.445312h313.917969v291.980469h-18.464843v-265.910157c0-4.199219-3.402344-7.601562-7.601563-7.601562h-261.78125c-4.199219 0-7.601563 3.402343-7.601563 7.601562v265.90625h-18.46875v-54.117187c0-4.199219-3.402343-7.601563-7.601562-7.601563s-7.605469 3.402344-7.605469 7.601563v54.117187h-30.324219v-344.132812l202.492188-87.589844 79.53125 34.402344c3.847656 1.667969 8.328125-.105469 9.996094-3.960938 1.667968-3.855469-.105469-8.328125-3.960938-9.996093l-82.546875-35.710938c-1.925781-.832031-4.113281-.832031-6.039062 0l-210.09375 90.882812c-2.785157 1.203126-4.585938 3.945313-4.585938 6.980469v349.769531c-21.703125 3.632813-38.300781 22.542969-38.300781 45.261719v10.875c0 4.199219 3.40625 7.605469 7.605469 7.605469h496.789062c4.203125 0 7.605469-3.40625 7.605469-7.605469v-10.875c0-22.71875-16.597656-41.628906-38.300781-45.261719zm-94.414063-110.046874h-246.570312v-39.496094h246.570312zm0-54.703126h-246.570312v-39.492187h246.570312zm-246.570312 69.910157h246.570312v39.496093h-246.570312zm246.570312-164.105469v39.496094h-246.570312v-39.496094zm-246.570312 218.808594h246.570312v39.496094h-246.570312zm364.078125 88.671875h-481.585938v-3.273438c0-16.925781 13.773438-30.695312 30.699219-30.695312h420.1875c16.925781 0 30.699219 13.769531 30.699219 30.695312zm0 0"/></svg>