<svg height="512pt" viewBox="0 0 512.00142 512" width="512pt" xmlns="http://www.w3.org/2000/svg"><path d="m511.710938 172.726562c-.78125-3.902343-3.078126-7.332031-6.390626-9.539062l-241-160.667969c-5.039062-3.359375-11.601562-3.359375-16.640624 0l-241 160.667969c-3.308594 2.207031-5.605469 5.636719-6.386719 9.539062-.78125 3.898438.019531 7.953126 2.226562 11.261719l29.613281 44.417969v268.59375c0 8.285156 6.71875 15 15 15h64.269532c8.28125 0 15-6.714844 15-15v-242.066406h259.199218v242.066406c0 8.285156 6.714844 15 15 15h64.265626c8.285156 0 15-6.714844 15-15v-268.59375l29.613281-44.417969c2.207031-3.308593 3.011719-7.363281 2.230469-11.261719zm-255.710938-139.699218 220.199219 146.800781-15.566407 23.347656-196.421874-128.429687c-.3125-.207032-.628907-.394532-.953126-.574219-2.257812-1.246094-4.757812-1.871094-7.257812-1.871094s-5 .625-7.253906 1.871094c-.324219.179687-.640625.367187-.953125.574219l-196.421875 128.429687-15.566406-23.347656zm159.601562 448.972656v-242.066406c0-8.285156-6.71875-15-15-15h-289.199218c-8.285156 0-15 6.714844-15 15v242.066406h-34.265625v-250.019531l193.863281-126.757813 193.867188 126.757813v250.019531zm0 0"/><path d="m352.402344 385.601562h-33.199219v-81.402343c0-8.285157-6.71875-15-15-15h-96.402344c-8.285156 0-15 6.714843-15 15v81.402343h-33.199219c-8.285156 0-15 6.714844-15 15v96.398438c0 8.285156 6.714844 15 15 15h192.800782c8.28125 0 15-6.714844 15-15v-96.398438c0-8.285156-6.71875-15-15-15zm-129.601563-66.402343h66.402344v66.402343h-66.402344zm-48.199219 96.402343h66.398438v66.398438h-66.398438zm162.800782 66.398438h-66.402344v-66.398438h66.402344zm0 0"/></svg>