<?xml version="1.0" encoding="utf-8"?>
<!-- Generator: Adobe Illustrator 21.0.2, SVG Export Plug-In . SVG Version: 6.00 Build 0)  -->
<svg version="1.1" id="_x31__x2C_5_px" xmlns="http://www.w3.org/2000/svg" xmlns:xlink="http://www.w3.org/1999/xlink" x="0px"
	 y="0px" viewBox="0 0 512 512" style="enable-background:new 0 0 512 512;" xml:space="preserve">
<path d="M202.7,496V76.7c0-18.3,13.1-33.8,31.4-36.9L468.5,4.4c10.8-1.8,21.9,1.2,30.3,8.3S512,30.2,512,41.2v433.5
	c0,20.6-16.7,37.3-37.3,37.3h-256C209.8,512,202.7,504.8,202.7,496z M473.6,36L239.1,71.5c-2.6,0.4-4.5,2.6-4.5,5.3V480h240
	c2.9,0,5.3-2.4,5.3-5.3V41.2c0-2.2-1.2-3.5-1.9-4.1c-0.6-0.5-1.7-1.2-3.5-1.2C474.3,35.9,473.9,35.9,473.6,36z"/>
<path d="M0,474.7l0-206.9c0-17.6,12-32.6,29.4-36.5l186-39c4.7-1,9.6,0.2,13.4,3.2c3.7,3,5.9,7.6,5.9,12.4v288c0,8.8-7.2,16-16,16
	H37.3C16.7,512,0,495.3,0,474.7z M202.7,227.7L36.2,262.6c-2.5,0.6-4.2,2.7-4.2,5.2v206.9c0,2.9,2.4,5.3,5.3,5.3h165.3V227.7z"/>
<path d="M288,490.7V400c0-20.6,16.7-37.3,37.3-37.3h53.3c20.6,0,37.3,16.7,37.3,37.3v90.7c0,8.8-7.2,16-16,16h-96
	C295.2,506.7,288,499.5,288,490.7z M384,400c0-2.9-2.4-5.3-5.3-5.3h-53.3c-2.9,0-5.3,2.4-5.3,5.3v74.7h64V400z"/>
<path d="M373.3,112c0-8.8,7.2-16,16-16h32c8.8,0,16,7.2,16,16s-7.2,16-16,16h-32C380.5,128,373.3,120.8,373.3,112z"/>
<path d="M266.7,112c0-8.8,7.2-16,16-16h32c8.8,0,16,7.2,16,16s-7.2,16-16,16h-32C273.8,128,266.7,120.8,266.7,112z"/>
<path d="M373.3,176c0-8.8,7.2-16,16-16h32c8.8,0,16,7.2,16,16c0,8.8-7.2,16-16,16h-32C380.5,192,373.3,184.8,373.3,176z"/>
<path d="M266.7,176c0-8.8,7.2-16,16-16h32c8.8,0,16,7.2,16,16c0,8.8-7.2,16-16,16h-32C273.8,192,266.7,184.8,266.7,176z"/>
<path d="M373.3,240c0-8.8,7.2-16,16-16h32c8.8,0,16,7.2,16,16c0,8.8-7.2,16-16,16h-32C380.5,256,373.3,248.8,373.3,240z"/>
<path d="M266.7,240c0-8.8,7.2-16,16-16h32c8.8,0,16,7.2,16,16c0,8.8-7.2,16-16,16h-32C273.8,256,266.7,248.8,266.7,240z"/>
<path d="M373.3,304c0-8.8,7.2-16,16-16h32c8.8,0,16,7.2,16,16c0,8.8-7.2,16-16,16h-32C380.5,320,373.3,312.8,373.3,304z"/>
<path d="M266.7,304c0-8.8,7.2-16,16-16h32c8.8,0,16,7.2,16,16c0,8.8-7.2,16-16,16h-32C273.8,320,266.7,312.8,266.7,304z"/>
<path d="M85.3,304c0-8.8,7.2-16,16-16h32c8.8,0,16,7.2,16,16c0,8.8-7.2,16-16,16h-32C92.5,320,85.3,312.8,85.3,304z"/>
<path d="M85.3,368c0-8.8,7.2-16,16-16h32c8.8,0,16,7.2,16,16s-7.2,16-16,16h-32C92.5,384,85.3,376.8,85.3,368z"/>
<path d="M85.3,432c0-8.8,7.2-16,16-16h32c8.8,0,16,7.2,16,16s-7.2,16-16,16h-32C92.5,448,85.3,440.8,85.3,432z"/>
</svg>
