<?xml version="1.0" encoding="utf-8"?>
<!-- Generator: Adobe Illustrator 25.2.3, SVG Export Plug-In . SVG Version: 6.00 Build 0)  -->
<svg version="1.1" id="Layer_1" xmlns="http://www.w3.org/2000/svg" xmlns:xlink="http://www.w3.org/1999/xlink" x="0px" y="0px"
	 viewBox="0 0 200 200" style="enable-background:new 0 0 200 200;" xml:space="preserve">
<g>
	<path d="M151.2,198H48.8c-8.5,0-15.4-8.3-15.4-18.6V20.6C33.4,10.4,40.3,2,48.8,2h102.4c8.5,0,15.4,8.3,15.4,18.6v158.7
		C166.6,189.6,159.7,198,151.2,198z M48.8,8c-5.2,0-9.4,5.7-9.4,12.6v158.7c0,6.9,4.2,12.6,9.4,12.6h102.4c5.2,0,9.4-5.7,9.4-12.6
		V20.6c0-6.9-4.2-12.6-9.4-12.6H48.8z"/>
</g>
<g>
	<path d="M70.7,92.4c3.6,0,6.5,2.9,6.5,6.5s-2.9,6.5-6.5,6.5s-6.5-2.9-6.5-6.5S67.1,92.4,70.7,92.4 M70.7,91.4L70.7,91.4
		c-4.1,0-7.5,3.4-7.5,7.5l0,0c0,4.1,3.4,7.5,7.5,7.5l0,0c4.1,0,7.5-3.4,7.5-7.5l0,0C78.2,94.8,74.8,91.4,70.7,91.4L70.7,91.4z"/>
</g>
<g>
	<path d="M70.7,48.1c3.6,0,6.5,2.9,6.5,6.5s-2.9,6.5-6.5,6.5s-6.5-2.9-6.5-6.5S67.1,48.1,70.7,48.1 M70.7,47.1L70.7,47.1
		c-4.1,0-7.5,3.4-7.5,7.5l0,0c0,4.1,3.4,7.5,7.5,7.5l0,0c4.1,0,7.5-3.4,7.5-7.5l0,0C78.2,50.5,74.8,47.1,70.7,47.1L70.7,47.1z"/>
</g>
<path d="M75.7,139l1.8-3.2l-2.6-1.5l-1.8,3.2c-0.8-0.2-1.5-0.4-2.4-0.4c-4.1,0-7.5,3.4-7.5,7.5c0,2.2,1,4.2,2.5,5.6
	c0.7,0.7,1.6,1.2,2.6,1.5c0.8,0.3,1.5,0.4,2.4,0.4c2,0,3.9-0.8,5.3-2.2c1.4-1.4,2.2-3.2,2.2-5.3C78.2,142.3,77.2,140.3,75.7,139z
	 M64.2,144.5c0-3.6,2.9-6.5,6.5-6.5c0.7,0,1.3,0.1,1.9,0.3l-6.3,11C65,148.1,64.2,146.4,64.2,144.5z M70.7,151
	c-0.7,0-1.3-0.1-1.9-0.3l6.3-11c1.3,1.2,2,2.9,2,4.7C77.2,148.2,74.3,151,70.7,151z"/>
<g>
	<path d="M100.7,92.4c3.6,0,6.5,2.9,6.5,6.5s-2.9,6.5-6.5,6.5s-6.5-2.9-6.5-6.5S97.1,92.4,100.7,92.4 M100.7,91.4L100.7,91.4
		c-4.1,0-7.5,3.4-7.5,7.5l0,0c0,4.1,3.4,7.5,7.5,7.5l0,0c4.1,0,7.5-3.4,7.5-7.5l0,0C108.2,94.8,104.8,91.4,100.7,91.4L100.7,91.4z"
		/>
</g>
<g>
	<path d="M100.7,48.1c3.6,0,6.5,2.9,6.5,6.5s-2.9,6.5-6.5,6.5s-6.5-2.9-6.5-6.5S97.1,48.1,100.7,48.1 M100.7,47.1L100.7,47.1
		c-4.1,0-7.5,3.4-7.5,7.5l0,0c0,4.1,3.4,7.5,7.5,7.5l0,0c4.1,0,7.5-3.4,7.5-7.5l0,0C108.2,50.5,104.8,47.1,100.7,47.1L100.7,47.1z"
		/>
</g>
<path d="M105.7,139l1.8-3.2l-2.6-1.5l-1.8,3.2c-0.8-0.2-1.5-0.4-2.4-0.4c-4.1,0-7.5,3.4-7.5,7.5c0,2.2,1,4.2,2.5,5.6
	c0.7,0.7,1.6,1.2,2.6,1.5c0.8,0.3,1.5,0.4,2.4,0.4c2,0,3.9-0.8,5.3-2.2c1.4-1.4,2.2-3.2,2.2-5.3C108.2,142.3,107.2,140.3,105.7,139z
	 M94.2,144.5c0-3.6,2.9-6.5,6.5-6.5c0.7,0,1.3,0.1,1.9,0.3l-6.3,11C95,148.1,94.2,146.4,94.2,144.5z M100.7,151
	c-0.7,0-1.3-0.1-1.9-0.3l6.3-11c1.3,1.2,2,2.9,2,4.7C107.2,148.2,104.3,151,100.7,151z"/>
<g>
	<path d="M130.7,92.4c3.6,0,6.5,2.9,6.5,6.5s-2.9,6.5-6.5,6.5c-3.6,0-6.5-2.9-6.5-6.5S127.1,92.4,130.7,92.4 M130.7,91.4L130.7,91.4
		c-4.1,0-7.5,3.4-7.5,7.5l0,0c0,4.1,3.4,7.5,7.5,7.5l0,0c4.1,0,7.5-3.4,7.5-7.5l0,0C138.2,94.8,134.8,91.4,130.7,91.4L130.7,91.4z"
		/>
</g>
<g>
	<path d="M130.7,48.1c3.6,0,6.5,2.9,6.5,6.5s-2.9,6.5-6.5,6.5c-3.6,0-6.5-2.9-6.5-6.5S127.1,48.1,130.7,48.1 M130.7,47.1L130.7,47.1
		c-4.1,0-7.5,3.4-7.5,7.5l0,0c0,4.1,3.4,7.5,7.5,7.5l0,0c4.1,0,7.5-3.4,7.5-7.5l0,0C138.2,50.5,134.8,47.1,130.7,47.1L130.7,47.1z"
		/>
</g>
<path d="M135.7,139l1.8-3.2l-2.6-1.5l-1.8,3.2c-0.8-0.2-1.5-0.4-2.4-0.4c-4.1,0-7.5,3.4-7.5,7.5c0,2.2,1,4.2,2.5,5.6
	c0.7,0.7,1.6,1.2,2.6,1.5c0.8,0.3,1.5,0.4,2.4,0.4c2,0,3.9-0.8,5.3-2.2c1.4-1.4,2.2-3.2,2.2-5.3C138.2,142.3,137.2,140.3,135.7,139z
	 M124.2,144.5c0-3.6,2.9-6.5,6.5-6.5c0.7,0,1.3,0.1,1.9,0.3l-6.3,11C125,148.1,124.2,146.4,124.2,144.5z M130.7,151
	c-0.7,0-1.3-0.1-1.9-0.3l6.3-11c1.3,1.2,2,2.9,2,4.7C137.2,148.2,134.3,151,130.7,151z"/>
</svg>
