<?xml version="1.0" encoding="utf-8"?>
<!-- Generator: Adobe Illustrator 21.0.2, SVG Export Plug-In . SVG Version: 6.00 Build 0)  -->
<svg version="1.1" id="Layer_1" xmlns="http://www.w3.org/2000/svg" xmlns:xlink="http://www.w3.org/1999/xlink" x="0px" y="0px"
	 viewBox="0 0 24 24" style="enable-background:new 0 0 24 24;" xml:space="preserve">
<style type="text/css">
	.st0{fill:none;}
</style>
<path class="st0" d="M0,0h24v24H0V0z"/>
<path d="M13.1,10.3l0.5,0.5l-5,5H8.1v-0.5L13.1,10.3 M15.1,7c-0.1,0-0.3,0.1-0.4,0.2l-1,1l2.1,2.1l1-1c0.2-0.2,0.2-0.6,0-0.8
	l-1.3-1.3C15.4,7,15.3,7,15.1,7z M13.1,8.8L7,14.9V17h2.1l6.1-6.1C15.2,10.9,13.1,8.8,13.1,8.8z"/>
<path d="M12,3.7c4.6,0,8.3,3.7,8.3,8.3s-3.7,8.3-8.3,8.3S3.7,16.6,3.7,12S7.4,3.7,12,3.7 M12,2C6.5,2,2,6.5,2,12s4.5,10,10,10
	s10-4.5,10-10S17.5,2,12,2L12,2z"/>
</svg>
