<?xml version="1.0" encoding="utf-8"?>
<!-- Generator: Adobe Illustrator 25.2.3, SVG Export Plug-In . SVG Version: 6.00 Build 0)  -->
<svg version="1.1" id="Layer_1" xmlns="http://www.w3.org/2000/svg" xmlns:xlink="http://www.w3.org/1999/xlink" x="0px" y="0px"
	 viewBox="0 0 200 200" style="enable-background:new 0 0 200 200;" xml:space="preserve">
<path class="st0" d="M189.5,112.1l-36,59.8c-6.6,10.9-20.1,17.7-35.4,17.7H44.7c-15.6,0-29.4-7.1-35.8-18.5
	c-4.9-8.6-4.7-18.5,0.4-27l36-59.8c6.5-10.9,20.1-17.7,35.4-17.7h0.9v16h-0.9c-9.4,0-18.1,4-21.7,10l-36,59.8
	c-2.1,3.6-2.2,7.2-0.2,10.8c3.5,6.2,12.1,10.3,21.9,10.3h73.4c9.4,0,18.1-4,21.7-10l15.2-25h-40.6v31.1h-30v-123h-2V19.1
	c0-1.7,1.3-3,3-3h28c1.7,0,3,1.3,3,3v27.4h-2v75.9h50.2l11.2-18.7c2.2-3.6,2.3-7.3,0.2-10.9c-3.5-6.2-12.1-10.3-21.9-10.3h-37v-16
	h37c15.7,0,29.5,7.1,35.9,18.5C194.8,93.6,194.7,103.4,189.5,112.1z"/>
</svg>
