<?xml version="1.0" encoding="utf-8"?>
<!-- Generator: Adobe Illustrator 21.0.2, SVG Export Plug-In . SVG Version: 6.00 Build 0)  -->
<svg version="1.1" id="Layer_2" xmlns="http://www.w3.org/2000/svg" xmlns:xlink="http://www.w3.org/1999/xlink" x="0px" y="0px"
	 viewBox="0 0 256 256" style="enable-background:new 0 0 256 256;" xml:space="preserve">
<style type="text/css">
	.st0{fill:#13489E;}
	.st1{fill:#FFFFFF;}
	.st2{fill:#68C3EE;}
	.st3{fill:#65BD62;}
	.st4{fill:#F7941D;}
</style>
<g>
	<path class="st0" d="M128,253.5C58.8,253.5,2.5,197.2,2.5,128C2.5,58.8,58.8,2.5,128,2.5c69.2,0,125.5,56.3,125.5,125.5
		C253.5,197.2,197.2,253.5,128,253.5z"/>
	<path class="st1" d="M128,5c32.9,0,63.7,12.8,87,36s36,54.1,36,87s-12.8,63.7-36,87s-54.1,36-87,36s-63.7-12.8-87-36S5,160.9,5,128
		s12.8-63.7,36-87S95.1,5,128,5 M128,0C57.3,0,0,57.3,0,128s57.3,128,128,128s128-57.3,128-128S198.7,0,128,0L128,0z"/>
</g>
<circle class="st2" cx="74.3" cy="183.3" r="22.7"/>
<path class="st3" d="M128.8,151.5H74.3c-12.5,0-22.7-10.2-22.7-22.7l0,0c0-12.5,10.2-22.7,22.7-22.7h54.5
	c12.5,0,22.7,10.2,22.7,22.7l0,0C151.5,141.3,141.2,151.5,128.8,151.5z"/>
<path class="st4" d="M183.1,97H74.5c-12.6,0-22.8-10.3-22.8-22.8l0,0c0-12.6,10.3-22.9,22.9-22.9h108.6c12.6,0,22.9,10.3,22.9,22.9
	l0,0C206,86.8,195.7,97,183.1,97z"/>
</svg>
