<?xml version="1.0" encoding="utf-8"?>
<!-- Generator: Adobe Illustrator 21.0.2, SVG Export Plug-In . SVG Version: 6.00 Build 0)  -->
<svg version="1.1" id="Layer_1" xmlns="http://www.w3.org/2000/svg" xmlns:xlink="http://www.w3.org/1999/xlink" x="0px" y="0px"
	 viewBox="0 0 954.4 957" style="enable-background:new 0 0 954.4 957;" xml:space="preserve">
<style type="text/css">
	.st0{fill:#14499E;}
	.st1{fill:#68C3EE;}
	.st2{fill:#65BD62;}
	.st3{fill:#F7941D;}
</style>
<g id="Layer_2">
	<circle class="st0" cx="470" cy="473" r="352"/>
	<circle class="st1" cx="326" cy="617" r="60"/>
	<path class="st2" d="M470,533H326c-33,0-60-27-60-60l0,0c0-33,27-60,60-60h144c33,0,60,27,60,60l0,0C530,506,503,533,470,533z"/>
	<path class="st3" d="M613.5,389h-287c-33.3,0-60.5-27.2-60.5-60.5l0,0c0-33.3,27.2-60.5,60.5-60.5h287c33.3,0,60.5,27.2,60.5,60.5
		l0,0C674,361.8,646.8,389,613.5,389z"/>
</g>
</svg>
