<?xml version="1.0" encoding="iso-8859-1"?>
<!-- Generator: Adobe Illustrator 18.0.0, SVG Export Plug-In . SVG Version: 6.00 Build 0)  -->
<!DOCTYPE svg PUBLIC "-//W3C//DTD SVG 1.1//EN" "http://www.w3.org/Graphics/SVG/1.1/DTD/svg11.dtd">
<svg version="1.1" id="Capa_1" xmlns="http://www.w3.org/2000/svg" xmlns:xlink="http://www.w3.org/1999/xlink" x="0px" y="0px"
	 viewBox="0 0 297 297" style="enable-background:new 0 0 297 297;" xml:space="preserve">
<g>
	<path d="M210.217,75.105c-5.187-5.257-12.123-8.153-19.532-8.153c-6.446,0-12.573,2.202-17.507,6.243
		c-4.919-4.128-11.078-6.373-17.603-6.373c-7.31,0-14.21,2.83-19.432,7.971c-5.245,5.169-8.176,12.06-8.252,19.404
		c-0.068,6.481,2.093,12.631,6.125,17.569c-4.16,4.925-6.448,11.08-6.494,17.59c-0.052,7.331,2.75,14.234,7.888,19.432
		c5.186,5.257,12.123,8.153,19.533,8.154c6.442,0,12.567-2.198,17.504-6.239c4.92,4.127,11.078,6.371,17.602,6.371
		c7.311,0,14.211-2.831,19.427-7.968c5.276-5.194,8.211-12.119,8.264-19.499c0.046-6.446-2.116-12.563-6.126-17.477
		c4.135-4.9,6.42-11.02,6.488-17.494C218.179,87.273,215.379,80.336,210.217,75.105z M169.272,115.484
		c-0.935-0.934-1.449-2.18-1.447-3.509c0.002-1.336,0.525-2.594,1.473-3.542c0.95-0.95,2.211-1.474,3.549-1.474
		c1.324,0,2.568,0.515,3.505,1.451c0.934,0.935,1.449,2.18,1.447,3.508c-0.002,1.336-0.526,2.594-1.475,3.543
		c-0.949,0.95-2.209,1.472-3.547,1.472C171.45,116.933,170.206,116.418,169.272,115.484z M146.939,85.753
		c2.323-2.287,5.39-3.547,8.636-3.547c3.26,0,6.308,1.269,8.591,3.584c0.85,0.858,1.552,1.821,2.087,2.86
		c0.721,1.401,1.845,2.503,3.181,3.227c-4.149,0.696-7.978,2.638-11.015,5.676c-2.975,2.976-4.905,6.713-5.637,10.768
		c-0.704-1.361-1.795-2.514-3.197-3.262c-1.048-0.559-2.006-1.277-2.859-2.143c-2.26-2.289-3.485-5.328-3.451-8.561
		C143.308,91.104,144.61,88.048,146.939,85.753z M165.772,135.096c-0.583,1.074-1.321,2.054-2.194,2.915
		c-2.323,2.287-5.39,3.547-8.636,3.547c-3.26,0-6.308-1.269-8.585-3.578c-2.25-2.276-3.476-5.299-3.453-8.514
		c0.023-3.266,1.327-6.336,3.682-8.653c0.871-0.859,1.861-1.582,2.944-2.148c1.404-0.735,2.504-1.876,3.219-3.228
		c0.7,4.119,2.632,7.916,5.645,10.928c2.93,2.93,6.6,4.846,10.589,5.594C167.649,132.654,166.516,133.724,165.772,135.096z
		 M198.68,138.144c-2.322,2.287-5.388,3.546-8.633,3.546c-3.26,0-6.307-1.268-8.578-3.568c-0.843-0.856-1.553-1.833-2.109-2.904
		c-0.722-1.39-1.842-2.484-3.171-3.205c4.149-0.696,7.976-2.638,11.013-5.673c2.976-2.977,4.907-6.714,5.639-10.769
		c0.702,1.36,1.792,2.514,3.192,3.262c1.067,0.571,2.026,1.286,2.867,2.142c2.251,2.281,3.478,5.307,3.455,8.522
		C202.331,132.764,201.026,135.834,198.68,138.144z M199.047,103.08c-0.871,0.859-1.867,1.586-2.959,2.158
		c-1.402,0.735-2.5,1.876-3.214,3.226c-0.7-4.121-2.632-7.921-5.645-10.933c-2.929-2.93-6.597-4.848-10.584-5.597
		c1.332-0.695,2.464-1.764,3.207-3.133c0.584-1.075,1.323-2.056,2.201-2.92c2.321-2.287,5.387-3.546,8.631-3.546
		c3.26,0,6.307,1.269,8.582,3.575c2.26,2.29,3.486,5.331,3.451,8.564C202.684,97.726,201.382,100.78,199.047,103.08z"/>
	<path d="M283.637,105.363C260.263,59.567,225.19,24.494,179.394,1.121c-3.228-1.648-7.085-1.468-10.147,0.469
		C119.454,33.099,94.499,57.942,63.076,107.408L45.8,124.681c-3.144,3.143-3.905,7.955-1.884,11.915
		c23.372,45.797,58.445,80.869,104.244,104.244c1.478,0.754,3.075,1.121,4.659,1.121c2.66,0,5.285-1.034,7.256-3.004l17.272-17.272
		c49.466-31.422,74.311-56.378,105.822-106.175C285.107,112.447,285.284,108.59,283.637,105.363z M150.93,219.092
		c-36.514-20.118-65.149-48.755-85.266-85.266l3.018-3.018c20.845,35.82,49.444,64.42,85.266,85.266L150.93,219.092z
		 M170.408,201.775c-0.01,0.002-0.02,0.005-0.03,0.007c-37.636-20.408-66.997-49.769-87.403-87.404
		c0.002-0.008,0.004-0.016,0.006-0.025c27.581-42.696,49.552-64.665,92.252-92.245c37.644,20.406,67.009,49.772,87.417,87.416
		C235.07,152.226,213.101,174.198,170.408,201.775z"/>
	<path d="M29.75,201.257c1.908-1.907,3.005-4.553,3.005-7.25c0-2.708-1.097-5.344-3.005-7.252c-1.908-1.908-4.543-3.005-7.252-3.005
		c-2.707,0-5.344,1.097-7.251,3.005c-1.908,1.908-3.006,4.543-3.006,7.252c0,2.697,1.098,5.343,3.006,7.25
		c1.907,1.908,4.553,3.006,7.251,3.006S27.842,203.165,29.75,201.257z"/>
	<path d="M39.421,170.417c2.697,0,5.343-1.098,7.252-3.006c1.908-1.907,3.005-4.553,3.005-7.25c0-2.697-1.097-5.344-3.005-7.252
		c-1.908-1.908-4.554-3.005-7.252-3.005c-2.697,0-5.344,1.097-7.251,3.005c-1.908,1.908-3.006,4.554-3.006,7.252
		c0,2.697,1.098,5.343,3.006,7.25C34.078,169.319,36.724,170.417,39.421,170.417z"/>
	<path d="M73.267,251.442c-2.697,0-5.344,1.087-7.251,3.005c-1.908,1.908-3.006,4.554-3.006,7.252s1.098,5.343,3.006,7.25
		c1.907,1.908,4.553,3.006,7.251,3.006c2.697,0,5.343-1.098,7.252-3.006c1.908-1.907,3.005-4.553,3.005-7.25
		s-1.097-5.344-3.005-7.252C78.61,252.528,75.964,251.442,73.267,251.442z"/>
	<path d="M100.293,276.487c-2.697,0-5.344,1.097-7.252,3.005c-1.908,1.908-3.005,4.554-3.005,7.252c0,2.697,1.097,5.344,3.005,7.25
		c1.908,1.908,4.554,3.006,7.252,3.006c2.707,0,5.343-1.098,7.25-3.006c1.918-1.907,3.006-4.553,3.006-7.25
		c0-2.697-1.088-5.344-3.006-7.252C105.636,277.584,103,276.487,100.293,276.487z"/>
	<path d="M107.113,234.519c-2.697,0-5.344,1.097-7.251,3.005c-1.908,1.908-3.006,4.554-3.006,7.252c0,2.697,1.098,5.343,3.006,7.25
		c1.907,1.908,4.553,3.006,7.251,3.006s5.343-1.098,7.252-3.006c1.908-1.907,3.005-4.553,3.005-7.25
		c0-2.697-1.097-5.344-3.005-7.252C112.456,235.615,109.81,234.519,107.113,234.519z"/>
	<path d="M66.6,210.929c0-2.697-1.097-5.344-3.005-7.252c-1.908-1.908-4.554-3.005-7.252-3.005s-5.344,1.097-7.251,3.005
		c-1.908,1.908-3.006,4.554-3.006,7.252c0,2.697,1.098,5.343,3.006,7.25c1.907,1.908,4.553,3.006,7.251,3.006
		s5.343-1.098,7.252-3.006C65.504,216.262,66.6,213.627,66.6,210.929z"/>
	<path d="M39.421,234.519c-2.697,0-5.344,1.097-7.251,3.005c-1.908,1.908-3.006,4.554-3.006,7.252c0,2.697,1.098,5.343,3.006,7.25
		c1.907,1.908,4.553,3.006,7.251,3.006c2.697,0,5.343-1.098,7.252-3.006c1.908-1.907,3.005-4.553,3.005-7.25
		c0-2.697-1.097-5.344-3.005-7.252C44.765,235.615,42.118,234.519,39.421,234.519z"/>
	<path d="M32.601,276.487c-2.697,0-5.344,1.097-7.252,3.005c-1.908,1.908-3.005,4.554-3.005,7.252c0,2.697,1.097,5.344,3.005,7.25
		c1.908,1.908,4.554,3.006,7.252,3.006c2.707,0,5.343-1.098,7.25-3.006c1.918-1.907,3.006-4.553,3.006-7.25
		c0-2.697-1.088-5.344-3.006-7.252C37.945,277.584,35.309,276.487,32.601,276.487z"/>
</g>
<g>
</g>
<g>
</g>
<g>
</g>
<g>
</g>
<g>
</g>
<g>
</g>
<g>
</g>
<g>
</g>
<g>
</g>
<g>
</g>
<g>
</g>
<g>
</g>
<g>
</g>
<g>
</g>
<g>
</g>
</svg>
