<?xml version="1.0" encoding="utf-8"?>
<!-- Generator: Adobe Illustrator 21.0.2, SVG Export Plug-In . SVG Version: 6.00 Build 0)  -->
<svg version="1.1" id="Capa_1" xmlns="http://www.w3.org/2000/svg" xmlns:xlink="http://www.w3.org/1999/xlink" x="0px" y="0px"
	 viewBox="0 0 416.2 416.2" style="enable-background:new 0 0 416.2 416.2;" xml:space="preserve">
<style type="text/css">
	.st0{fill:#FFFFFF;}
</style>
<g>
	<circle class="st0" cx="233.7" cy="281.9" r="5.1"/>
	<path class="st0" d="M366.7,139.5c-1.4-4.1-3.2-8-5.4-11.6c-8.2-13.7-21.6-23.4-39.9-28.9c-21.1-21.7-47.5-36.8-76.7-44
		c0.2-1.4,0.3-2.9,0.3-4.4c0-21.1-17.1-38.2-38.2-38.2s-38.2,17.1-38.2,38.2c0,1.5,0.1,2.9,0.3,4.4c-33.3,8.1-63.5,27.1-85.5,53.7
		c-23.5,28.5-36.4,64.6-36.4,101.6c0,1,0,2,0,3.1c-7.3,21-7.7,44.4-0.4,66.8c6.7,20.6,22,34.5,45.6,41.6
		c21.1,21.7,47.5,36.9,76.8,44c-0.2,1.6-0.3,3.3-0.3,5c0,21.1,17.1,38.2,38.2,38.2s38.2-17.1,38.2-38.2c0-1.7-0.1-3.4-0.3-5
		c33.3-8.1,63.6-27,85.6-53.7c23.5-28.5,36.5-64.7,36.5-101.7c0-1,0-2.1,0-3.1c2.5-7.2,4.2-14.8,5.1-22.5
		C373.3,169.4,371.6,153.8,366.7,139.5z M211.5,277.7c-7.4-7.4-14.2-15.4-20.4-23.8l-4.9-6.6c-2.5-3.4-5.3-6.6-8.3-9.6
		c-4.8-4.8-10.2-9-15.9-12.5c19.2-33.6,35.9-34.5,40.6-34c2.6,3.2,5,6.7,7.1,10.3c27.1,46.6,36.5,91.9,39.6,114.1L211.5,277.7z
		 M53.6,233.4c1.8-11.8,5.9-23.2,12.1-33.4c4.1,11.1,12.5,27.3,29.3,36.8c-0.7,1.7-1.3,3.4-1.8,5.1C77,243.9,60.4,236.8,53.6,233.4z
		 M102.9,225.2c-0.6,0.6-1.2,1.3-1.8,2c-18.5-10.4-25.2-31.5-27-38.7c1.3-1.5,2.6-3,4-4.4c0.6-0.6,1.2-1.3,1.9-1.9
		c6.9-6.7,14.9-12,23.5-15.8c-2.1,11.7-3.4,31.7,4.2,54.7C106,222.3,104.3,223.7,102.9,225.2z M118,216c-8-25.4-3.9-46.7-1.9-54
		c6.6-1.7,13.5-2.6,20.4-2.6c5,0,9.9,0.5,14.7,1.3c-8.3,10.6-21.8,31.1-21.7,53.7c-0.2,0-0.4,0-0.5,0
		C125.2,214.4,121.6,214.9,118,216z M167.7,126c0,0,0-0.2-0.1-0.5c-1.5-6.9-2.7-13.8-3.6-20.5l39,39c0.1,0.1,0.1,0.1,0.2,0.2
		l1.4,1.3c1.2,1.2,2.4,2.4,3.6,3.6c5.9,6.1,10.9,13,16.2,20.2c1,1.3,1.9,2.6,2.9,3.9c6.5,8.8,14.8,16.4,24.2,22.1
		c-6.1,10.6-12.4,18.9-18.9,24.7c-3.8-8-8-16.1-12.8-24.3c-10.3-17.6-25.7-31.2-43.8-39.4C172.7,146.5,169.9,136.2,167.7,126z
		 M272.5,204.5c1,23-16.2,45.1-22.6,52.4c-1.1-0.4-2.1-0.7-3.2-1.1c-2.7-7.9-5.8-16.3-9.5-24.8c8.5-6.8,16.6-17,24.2-30.3
		C265.1,202.2,268.8,203.5,272.5,204.5z M140.9,216.2c-1-22.9,16.1-45,22.5-52.4c10.8,3.7,20.9,9.5,29.4,17.1
		c-10.6,2.9-25.6,12.2-40.9,39.1C148.4,218.5,144.7,217.3,140.9,216.2z M283.9,206.4c3.9,0.1,7.8-0.5,11.5-1.7
		c8,25.4,3.8,46.7,1.9,54.1c-11.4,3-23.4,3.4-35.1,1.3C270.5,249.5,284,229,283.9,206.4z M305.7,199.6c2.5-1.7,4.7-3.8,6.7-6
		c18.5,10.4,25.2,31.5,27,38.7c-1.3,1.5-2.6,2.9-4,4.4c-0.5,0.5-1.1,1.1-1.6,1.6c-7.1,6.9-15,12.3-23.8,16.1
		C312.1,242.7,313.4,222.7,305.7,199.6z M347.7,220.7c-4.1-11.1-12.5-27.3-29.3-36.8c0.7-1.6,1.3-3.3,1.7-5.1
		c16.2-2,32.8,5.1,39.6,8.5C358,199.3,353.9,210.6,347.7,220.7z M360.9,175.2c-8.8-3.9-23.9-9.1-39.5-7.9c-0.2-2.7-0.6-5.3-1.3-7.9
		c2.9-5,12.5-18.5,33.3-22.4c1,2,1.8,4,2.6,6.1C359.4,153.3,361.1,164.3,360.9,175.2z M346.5,126.9c-16.4,4.3-26.6,13.7-32.2,20.8
		c-0.4-0.5-1.5-1.9-1.5-1.9c-2.7-3.3-5.8-6.1-9.2-8.5c-0.3-4.6,0.4-16.2,12.4-28C329.1,112.9,339.4,118.8,346.5,126.9z M285,113.6
		h-46.7c2.2-1.4,4.5-2.6,6.8-3.7c4.7-2.1,9.6-3.5,14.7-4.3c5.3-0.8,10.9-0.8,16.4-0.8l0.2,0c9.9-0.1,18.7,0.5,26.8,1.7
		c-7.5,9.4-10.1,18.6-10.7,25.2c-1.6-0.5-3.2-0.9-4.9-1.3c-2.2-0.4-4.5-0.7-6.6-0.9c-1.5-0.2-2.9-0.3-4.3-0.5
		c-6.3-1-12.5-2.4-18.2-4H285c3.1,0,5.7-2.6,5.7-5.7S288.1,113.6,285,113.6z M206.7,23.8c14.8,0,26.8,12,26.8,26.8
		s-12,26.8-26.8,26.8c-14.8,0-26.8-12-26.8-26.8S191.9,23.8,206.7,23.8z M92,116c20.5-24.9,48.7-42.5,79.7-50
		c5.9,13.4,19.4,22.8,35,22.8c15.6,0,29-9.4,35-22.8c21.3,5.1,41.1,14.9,58.1,28.6c-7.2-0.8-15-1.2-23.5-1.2l-0.2,0
		c-5.8,0-11.9,0.1-17.9,1c-6.1,0.9-12.1,2.6-17.7,5.2c-6.5,2.9-12.4,6.9-17.7,11.7l-4.2,3.9c-1.4,1.3-2.1,3.3-1.7,5.3
		c0.4,1.9,1.7,3.5,3.5,4.2c5.3,2,11,4.1,18,6.3c9.8,3.2,22.9,7.1,36.4,9.3c1.6,0.3,3.3,0.4,4.8,0.6c2,0.2,3.9,0.4,5.6,0.8
		c3.6,0.7,7,2,10.1,3.9c3.3,2,6.2,4.4,8.5,7.3c0.1,0.1,0.4,0.5,0.4,0.5c1.8,2.3,3.2,4.7,4.2,7.4c1.4,3.9,1.8,8.1,1.2,12.3
		c-0.5,3.7-1.8,7.1-3.9,10.3c-1.1,1.7-2.5,3.3-4,4.7c-5.5-9.3-7.4-20.3-5-31.1c0.7-3.1-1.3-6.1-4.3-6.8c-3.1-0.7-6.1,1.3-6.8,4.3
		c-3,13.6-0.7,27.5,6.3,39.3c-2.7,0.8-5.4,1.2-8.2,1.1c-6.1-12.6-5.7-27.7,1.4-40c1.6-2.7,0.6-6.2-2.1-7.8c-2.7-1.6-6.2-0.6-7.8,2.1
		c-7.5,13.1-9.1,28.6-4.9,42.7c-2.8-1-5.4-2.1-8.1-3.4c-2.6-13.8,1.7-28.2,11.7-38.2c2.2-2.2,2.2-5.8,0-8.1c-2.2-2.2-5.8-2.2-8.1,0
		c-10.3,10.3-15.9,24.4-15.8,38.7c-5.3-4.1-10.1-9-14-14.4c-0.9-1.3-1.9-2.6-2.8-3.9c-5.3-7.2-10.7-14.7-17.2-21.4
		c-1.2-1.3-2.5-2.5-3.7-3.8l-0.1-0.1c-1.5-8.2-2.9-26.4,5.4-33.5c2.4-2,2.7-5.6,0.6-8c-2-2.4-5.6-2.7-8-0.6
		c-6.5,5.5-10,14.4-10.5,26.4c-1.4-4.9-2.1-12.4,2.4-20.9c1.5-2.8,0.4-6.2-2.4-7.7s-6.2-0.4-7.7,2.4c-3.2,6.1-4.5,11.9-4.7,17.1
		l-19.9-19.9c-2.2-2.2-5.4-3.2-8.5-2.5c-3.1,0.6-5.6,2.7-6.8,5.6c-0.9,2.3-0.6,4.5-0.4,5.8l0.1,0.5c0.2,1.4,0.4,2.8,0.6,4.2
		c0.1,1,0.3,2,0.4,3c-2.6-1.3-5.7-2.4-9.4-3.3c-3.1-0.7-6.1,1.2-6.8,4.3c-0.7,3.1,1.2,6.1,4.3,6.8c13,2.9,15.2,10.6,15.3,11.2
		c0,0,0,0,0,0.1c1.7,7.8,3.7,15.5,5.9,23.2c-8.3-2.4-17.1-3.6-25.9-3.6c-24.2,0-47.1,9.2-64.5,26c-0.7,0.7-1.4,1.4-2.1,2.1
		c-3.7,3.8-7.1,7.8-10.1,12.1C63.9,161.8,74.9,136.7,92,116z M52.5,245.5c8,3.5,20.9,8.1,34.9,8.1c1.5,0,3.1-0.1,4.6-0.2
		c0.2,2.7,0.6,5.3,1.3,7.9c-2.9,4.9-12.6,18.5-33.3,22.4c-1.1-2.2-2.1-4.6-2.9-7C53.9,266.4,52.4,255.9,52.5,245.5z M67,293.9
		c16.4-4.3,26.5-13.7,32.1-20.8c0.4,0.5,1.5,1.9,1.5,1.9c2.7,3.3,5.8,6.1,9.2,8.5c0.3,4.6-0.4,16.2-12.4,28
		C84.3,307.8,74.2,302,67,293.9z M128.4,307.1h46.8c-7.9,5-16.9,8-26.3,8.5c-4.8,0.3-9.2,0.4-13.5,0.4c-9.1,0-17.4-0.6-25-1.7
		c7.5-9.4,10-18.6,10.7-25.2c3,1,6.1,1.6,9.2,1.9c7.5,0.7,16.3,2.6,24.6,4.8h-26.5c-3.1,0-5.7,2.6-5.7,5.7
		C122.7,304.6,125.3,307.1,128.4,307.1z M206.7,397.6c-14.8,0-26.8-12-26.8-26.8s12-26.8,26.8-26.8c14.8,0,26.8,12,26.8,26.8
		S221.5,397.6,206.7,397.6z M321.4,304.8c-20.5,24.9-48.8,42.5-79.9,50c-6.1-13.1-19.3-22.2-34.7-22.2c-15.4,0-28.6,9.1-34.7,22.2
		c-21.4-5.1-41.3-14.9-58.3-28.7c6.8,0.8,14,1.2,21.7,1.2c4.5,0,9.1-0.1,14.1-0.4c15.3-0.8,29.9-7,41.2-17.5l4.2-3.9
		c1.4-1.3,2.1-3.3,1.7-5.2c-0.4-1.9-1.7-3.5-3.5-4.2c-1.5-0.6-36.7-14.2-61.7-16.5c-8.5-0.8-16.5-5.1-21.9-11.7
		c-0.1-0.1-0.4-0.5-0.4-0.5c-7-8.6-7.6-20.6-1.6-29.9c1-1.5,2.1-2.9,3.4-4.2c0.2-0.2,0.4-0.4,0.6-0.6c5.5,9.3,7.4,20.3,5,31
		c-0.7,3.1,1.3,6.1,4.3,6.8c0.4,0.1,0.8,0.1,1.2,0.1c2.6,0,5-1.8,5.6-4.5c3-13.6,0.7-27.5-6.3-39.3c2.5-0.8,5-1.2,7.6-1.2
		c0.2,0,0.4,0,0.6,0c6.1,12.6,5.7,27.7-1.4,40c-1.6,2.7-0.6,6.2,2.1,7.8c0.9,0.5,1.9,0.8,2.8,0.8c2,0,3.9-1,4.9-2.9
		c7.5-13.1,9.1-28.6,4.9-42.7c2.8,1,5.5,2.1,8.1,3.4c2.6,13.8-1.7,28.2-11.7,38.2c-2.2,2.2-2.2,5.8,0,8.1c1.1,1.1,2.6,1.7,4,1.7
		c1.5,0,2.9-0.6,4-1.7c10.3-10.3,15.9-24.4,15.8-38.7c2.4,1.9,4.7,3.9,6.9,6c2.6,2.6,5,5.4,7.1,8.3l4.9,6.6
		c5.8,7.9,12.2,15.5,19,22.5c1.5,8.2,2.9,26.5-5.4,33.6c-2.4,2-2.7,5.6-0.6,8c1.1,1.3,2.7,2,4.3,2c1.3,0,2.6-0.5,3.7-1.4
		c6.5-5.5,10-14.4,10.5-26.4c1.4,4.9,2.1,12.4-2.4,20.9c-1.5,2.8-0.4,6.2,2.4,7.7c0.8,0.4,1.8,0.7,2.6,0.7c2,0,4-1.1,5-3
		c3.2-6.1,4.5-11.9,4.7-17.1l19.9,19.9c1.8,1.8,4.1,2.7,6.5,2.7c2.7,0,5.2-1.1,7-3.1c1.8-2,2.6-4.6,2.3-7.2c-0.3-2.5-0.7-5.5-1.2-9
		c2.6,1.3,5.7,2.4,9.4,3.3c0.4,0.1,0.8,0.1,1.3,0.1c2.6,0,5-1.8,5.6-4.5c0.7-3.1-1.2-6.1-4.3-6.8c-13.2-3-15.3-10.8-15.4-11.2l0,0.1
		l0,0c-1.5-7-3.5-14.9-5.9-23.3c8.5,2.4,17.2,3.6,25.8,3.6c9,0,18-1.3,26.7-3.9c14.4-4.3,27.3-11.8,38.2-22.5
		c0.6-0.6,1.2-1.2,1.8-1.8c2.3-2.4,4.5-4.8,6.4-7.2c1.3-1.6,2.5-3.2,3.6-4.8C349.6,259,338.5,284.1,321.4,304.8z"/>
	<path class="st0" d="M176.2,135.3c-2,2-2,5.2,0,7.2s5.2,2,7.2,0s2-5.2,0-7.2C181.4,133.3,178.2,133.3,176.2,135.3z"/>
	<path class="st0" d="M206.7,39.1c6.4,0,11.5,5.2,11.5,11.5c0,3.1,2.6,5.7,5.7,5.7c3.1,0,5.7-2.6,5.7-5.7
		c0-12.6-10.3-22.9-22.9-22.9c-3.1,0-5.7,2.6-5.7,5.7S203.6,39.1,206.7,39.1z"/>
	<path class="st0" d="M206.7,348.5c-3.1,0-5.7,2.6-5.7,5.7c0,3.1,2.6,5.7,5.7,5.7c6.4,0,11.5,5.2,11.5,11.5c0,3.1,2.6,5.7,5.7,5.7
		c3.1,0,5.7-2.6,5.7-5.7C229.7,358.8,219.4,348.5,206.7,348.5z"/>
</g>
</svg>
