<svg height="512pt" viewBox="0 -42 512 512" width="512pt" xmlns="http://www.w3.org/2000/svg"><path d="m480.15625 373.445312v-290.289062c0-3.03125-1.800781-5.773438-4.582031-6.976562l-174.640625-75.554688c-1.921875-.832031-4.113282-.832031-6.035156 0l-174.636719 75.554688c-2.785157 1.203124-4.585938 3.945312-4.585938 6.976562v145.589844h-73.148437c-4.199219 0-7.605469 3.40625-7.605469 7.605468v136.425782c-19.832031 3.597656-34.921875 20.980468-34.921875 41.832031v5.957031c0 4.199219 3.402344 7.605469 7.605469 7.605469h496.789062c4.203125 0 7.605469-3.40625 7.605469-7.605469v-5.957031c0-19.757813-13.546875-36.414063-31.84375-41.164063zm-81.046875-1.359374h-51.8125v-71.695313l38.414063-40.214844c2.808593-2.9375 2.808593-7.566406 0-10.503906l-60.113282-62.925781c-2.144531-2.246094-5.441406-2.960938-8.328125-1.804688-2.882812 1.15625-4.773437 3.949219-4.773437 7.058594v25.636719h-45.867188c-4.199218 0-7.605468 3.402343-7.605468 7.601562s3.40625 7.605469 7.605468 7.605469h53.46875c4.203125 0 7.605469-3.40625 7.605469-7.605469v-14.273437l41.996094 43.957031-41.996094 43.960937v-14.273437c0-4.199219-3.402344-7.605469-7.605469-7.605469h-91.234375v-44.160156h7.347657c4.199218 0 7.601562-3.40625 7.601562-7.605469s-3.402344-7.601562-7.601562-7.601562h-14.949219c-4.203125 0-7.605469 3.402343-7.605469 7.601562v3.507813h-16.933594v-68.808594h202.386719zm-185.453125-128.132813v40.65625c0 4.199219 3.402344 7.601563 7.601562 7.601563h91.238282v25.636718c0 3.109375 1.886718 5.902344 4.773437 7.058594.917969.367188 1.875.546875 2.828125.546875 2.035156 0 4.035156-.820313 5.5-2.351563l6.488282-6.792968v55.773437h-165.449219v-128.128906zm-62.226562 128.132813h-43.042969v-128.132813h43.042969zm-20.546876-283.933594 167.035157-72.261719 167.03125 72.261719v283.933594h-22.640625v-45.566407c0-4.199219-3.402344-7.605469-7.601563-7.605469-4.203125 0-7.605469 3.40625-7.605469 7.605469v45.566407h-12.78125v-219.753907c0-4.199219-3.40625-7.605469-7.605468-7.605469h-217.59375c-4.203125 0-7.605469 3.40625-7.605469 7.605469v76.414063h-12.785156v-96.800782h258.371093v164.15625c0 4.199219 3.40625 7.605469 7.605469 7.605469s7.605469-3.40625 7.605469-7.605469v-171.761718c0-4.199219-3.40625-7.605469-7.605469-7.605469h-273.582031c-4.199219 0-7.601562 3.40625-7.601562 7.605469v104.40625h-22.640626zm-37.703124 155.800781v128.132813h-43.046876v-128.132813zm-77.921876 169.011719c.851563-14.292969 12.742188-25.660156 27.242188-25.671875h.027344 427.027344c14.472656.042969 26.335937 11.398437 27.1875 25.671875zm0 0"/></svg>