<?xml version="1.0" encoding="iso-8859-1"?>
<!-- Generator: Adobe Illustrator 19.0.0, SVG Export Plug-In . SVG Version: 6.00 Build 0)  -->
<svg version="1.1" id="Layer_1" xmlns="http://www.w3.org/2000/svg" xmlns:xlink="http://www.w3.org/1999/xlink" x="0px" y="0px"
	 viewBox="0 0 512 512" style="enable-background:new 0 0 512 512;" xml:space="preserve">
<g>
	<g>
		<path d="M407.965,286.925V0h-97.743H133.118H35.375v464.98h229.127c3.507,4.659,7.347,9.089,11.541,13.211
			c22.191,21.803,51.541,33.81,82.643,33.81c65.031,0,117.939-52.907,117.939-117.939
			C476.625,346.611,448.456,305.623,407.965,286.925z M310.222,31.347h66.396v246.136c-5.848-0.895-11.837-1.36-17.932-1.36
			c-0.139,0-0.278,0.004-0.417,0.005V48.076h-48.048V31.347z M164.465,31.347h114.41v48.414h-114.41V31.347z M66.722,433.633V31.347
			h66.396v16.729H85.07v365.881h157.387c1.148,6.714,2.879,13.294,5.158,19.675H66.722z M241.314,382.61H116.417V79.423h16.701
			v31.685h177.103V79.423h16.701v201.038c-4.303,1.204-8.547,2.65-12.72,4.35c-11.841,4.825-22.767,11.515-32.462,19.869
			l-0.812,0.711C258.283,325.263,244.213,352.93,241.314,382.61z M358.686,480.653c-22.834,0-44.381-8.816-60.673-24.824
			c-14.274-14.025-23.301-32.646-25.417-52.435c-0.332-3.11-0.502-6.25-0.502-9.333c0-24.92,10.756-48.651,29.516-65.114l0.583-0.51
			c7.129-6.144,15.15-11.055,23.84-14.597c10.374-4.228,21.36-6.372,32.653-6.372c47.747,0,86.592,38.845,86.592,86.593
			C445.278,441.808,406.433,480.653,358.686,480.653z"/>
	</g>
</g>
<g>
	<g>
		<rect x="157.936" y="138.971" width="122.692" height="31.347"/>
	</g>
</g>
<g>
	<g>
		<rect x="157.936" y="195.396" width="122.692" height="31.347"/>
	</g>
</g>
<g>
	<g>
		<rect x="157.936" y="251.82" width="122.692" height="31.347"/>
	</g>
</g>
<g>
	<g>
		<polygon points="374.36,379.38 374.36,339.234 343.013,339.234 343.013,379.38 304.87,379.38 304.87,410.727 343.013,410.727 
			343.013,450.873 374.36,450.873 374.36,410.727 412.502,410.727 412.502,379.38 		"/>
	</g>
</g>
<g>
</g>
<g>
</g>
<g>
</g>
<g>
</g>
<g>
</g>
<g>
</g>
<g>
</g>
<g>
</g>
<g>
</g>
<g>
</g>
<g>
</g>
<g>
</g>
<g>
</g>
<g>
</g>
<g>
</g>
</svg>
