<?xml version="1.0" encoding="utf-8"?>
<!-- Generator: Adobe Illustrator 21.0.2, SVG Export Plug-In . SVG Version: 6.00 Build 0)  -->
<svg version="1.1" id="Capa_1" xmlns="http://www.w3.org/2000/svg" xmlns:xlink="http://www.w3.org/1999/xlink" x="0px" y="0px"
	 viewBox="0 0 16.1 16.1" style="enable-background:new 0 0 16.1 16.1;" xml:space="preserve">
<style type="text/css">
	.st0{fill:#FFFFFF;}
</style>
<g>
	<path class="st0" d="M9.2,8.7c0.5,0,0.8,0.4,0.8,0.8s-0.4,0.8-0.8,0.8S8.4,10,8.4,9.6C8.4,9.1,8.7,8.7,9.2,8.7z M6.8,8.3
		C6.4,8.3,6,8.7,6,9.1s0.4,0.8,0.8,0.8c0.4,0,0.8-0.4,0.8-0.8S7.3,8.3,6.8,8.3z M9.1,7.7c0-0.3-0.3-0.6-0.6-0.6S7.9,7.4,7.9,7.7
		s0.3,0.6,0.6,0.6S9.1,8,9.1,7.7z M13.8,16.1H2.3c-1.6,0-2.2-1.4-1.7-2.9c0,0,2-3.7,5.2-9V1H5.7c-0.3,0-0.5-0.2-0.5-0.5
		C5.1,0.2,5.4,0,5.7,0l4.8,0c0.3,0,0.5,0.2,0.5,0.5c0,0.3-0.2,0.5-0.5,0.5h-0.2v3.1c3.2,5.3,5.2,9,5.2,9
		C15.9,14.7,15.4,16.1,13.8,16.1z M12.9,11c-0.5-1-2.9-5-3.6-6.3L9.1,4.5H6.9L6.8,4.7C6,6.1,3.5,10.4,3.1,11H12.9z"/>
</g>
</svg>
