<svg id="Layer_5" enable-background="new 0 0 64 64" height="512" viewBox="0 0 64 64" width="512" xmlns="http://www.w3.org/2000/svg"><g><path d="m5.522 19.35c.179.559.416 1.125.704 1.683l.256.493-1.246 2.096 3.143 3.143 2.095-1.246.492.254c.56.289 1.126.525 1.686.704l.528.169.597 2.354h4.445l.598-2.354.528-.169c.56-.179 1.126-.415 1.686-.704l.492-.254 2.095 1.246 3.143-3.143-1.246-2.096.256-.493c.288-.558.525-1.124.704-1.683l.168-.528 2.354-.599v-4.445l-2.354-.599-.168-.528c-.179-.558-.416-1.125-.705-1.683l-.255-.493 1.246-2.095-3.143-3.143-2.095 1.246-.492-.254c-.56-.289-1.126-.525-1.686-.704l-.528-.171-.597-2.354h-4.445l-.598 2.354-.528.169c-.56.179-1.126.415-1.686.704l-.492.254-2.095-1.245-3.143 3.143 1.246 2.095-.255.493c-.289.559-.526 1.125-.705 1.683l-.168.528-2.354.599v4.445l2.354.599zm10.478-11.35c4.418 0 8 3.582 8 8s-3.582 8-8 8-8-3.582-8-8 3.582-8 8-8z"/><path d="m31 59h24v2h-24z"/><path d="m31 55h24v2h-24z"/><path d="m58 55h-1v6h1c1.654 0 3-1.346 3-3s-1.346-3-3-3z"/><path d="m25 58c0 .236.131.447.342.553l3.658 1.829v-4.764l-3.658 1.829c-.211.106-.342.317-.342.553z"/><path d="m53 15h-.142c-.447-1.72-1.999-3-3.858-3s-3.411 1.28-3.858 3h-12.142v2h12.142c.447 1.72 1.999 3 3.858 3s3.411-1.28 3.858-3h.142c4.411 0 8 3.589 8 8v6c0 4.411-3.589 8-8 8h-3.142c-.447-1.72-1.999-3-3.858-3s-3.411 1.28-3.858 3h-6.284c-.447-1.72-1.999-3-3.858-3s-3.411 1.28-3.858 3h-6.284c-.447-1.72-1.999-3-3.858-3s-3.411 1.28-3.858 3h-3.142c-5.514 0-10 4.486-10 10s4.486 10 10 10h10v-2h-10c-4.411 0-8-3.589-8-8s3.589-8 8-8h3.142c.447 1.72 1.999 3 3.858 3s3.411-1.28 3.858-3h6.284c.447 1.72 1.999 3 3.858 3s3.411-1.28 3.858-3h6.284c.447 1.72 1.999 3 3.858 3s3.411-1.28 3.858-3h3.142c5.514 0 10-4.486 10-10v-6c0-5.514-4.486-10-10-10z"/><path d="m33 22h14v2h-14z"/><path d="m33 26h14v2h-14z"/><path d="m41 30h2v2h-2z"/><path d="m37 30h2v2h-2z"/><path d="m33 30h2v2h-2z"/><path d="m45 30h2v2h-2z"/><path d="m5 48h2v2h-2z"/><path d="m13 48h2v2h-2z"/><path d="m17 48h2v2h-2z"/><path d="m9 48h2v2h-2z"/></g></svg>